<mxfile host="app.diagrams.net" modified="2022-11-16T05:49:20.050Z" agent="5.0 (Windows NT 10.0; Win64; x64) AppleWebKit/537.36 (KHTML, like Gecko) Chrome/107.0.0.0 Safari/537.36" etag="4EYvjEkVk5tZN4xo7wij" version="20.5.3" type="github">
  <diagram name="Page-1" id="e7e014a7-5840-1c2e-5031-d8a46d1fe8dd">
    <mxGraphModel dx="1422" dy="754" grid="1" gridSize="10" guides="1" tooltips="1" connect="1" arrows="1" fold="1" page="1" pageScale="1" pageWidth="1600" pageHeight="900" background="none" math="0" shadow="0">
      <root>
        <mxCell id="0" />
        <mxCell id="1" parent="0" />
        <mxCell id="2" value="商城" style="swimlane;whiteSpace=wrap" parent="1" vertex="1">
          <mxGeometry x="10" y="120" width="280" height="740" as="geometry" />
        </mxCell>
        <mxCell id="rSBJgV3G-z57Fv7vuEYP-53" value="试算" style="rounded=0;whiteSpace=wrap;html=1;" vertex="1" parent="2">
          <mxGeometry x="80" y="110" width="120" height="60" as="geometry" />
        </mxCell>
        <mxCell id="rSBJgV3G-z57Fv7vuEYP-60" value="结算" style="rounded=0;whiteSpace=wrap;html=1;" vertex="1" parent="2">
          <mxGeometry x="80" y="310" width="120" height="60" as="geometry" />
        </mxCell>
        <mxCell id="rSBJgV3G-z57Fv7vuEYP-70" value="新增字段" style="text;html=1;align=center;verticalAlign=middle;resizable=0;points=[];autosize=1;strokeColor=none;fillColor=none;" vertex="1" parent="2">
          <mxGeometry x="105" y="270" width="70" height="30" as="geometry" />
        </mxCell>
        <mxCell id="3" value="mcm" style="swimlane;whiteSpace=wrap" parent="1" vertex="1">
          <mxGeometry x="290" y="120" width="280" height="740" as="geometry" />
        </mxCell>
        <mxCell id="rSBJgV3G-z57Fv7vuEYP-55" value="&lt;span style=&quot;color: rgb(38, 38, 38); font-family: &amp;quot;Helvetica Neue&amp;quot;, &amp;quot;Chinese Quote&amp;quot;, BlinkMacSystemFont, &amp;quot;Segoe UI&amp;quot;, Roboto, &amp;quot;PingFang SC&amp;quot;, &amp;quot;Hiragino Sans GB&amp;quot;, &amp;quot;Microsoft YaHei&amp;quot;, &amp;quot;Helvetica Neue&amp;quot;, Helvetica, Arial, sans-serif; text-align: left; background-color: rgb(255, 255, 255);&quot;&gt;settlementTrial&lt;/span&gt;" style="rounded=0;whiteSpace=wrap;html=1;" vertex="1" parent="3">
          <mxGeometry x="80" y="110" width="120" height="60" as="geometry" />
        </mxCell>
        <mxCell id="rSBJgV3G-z57Fv7vuEYP-61" value="mcmCenterSettlement&lt;br&gt;/settleAccounts" style="rounded=0;whiteSpace=wrap;html=1;" vertex="1" parent="3">
          <mxGeometry x="80" y="310" width="120" height="60" as="geometry" />
        </mxCell>
        <mxCell id="rSBJgV3G-z57Fv7vuEYP-71" value="新增字段" style="text;html=1;align=center;verticalAlign=middle;resizable=0;points=[];autosize=1;strokeColor=none;fillColor=none;" vertex="1" parent="3">
          <mxGeometry x="120" y="80" width="70" height="30" as="geometry" />
        </mxCell>
        <mxCell id="rSBJgV3G-z57Fv7vuEYP-72" value="新增字段" style="text;html=1;align=center;verticalAlign=middle;resizable=0;points=[];autosize=1;strokeColor=none;fillColor=none;" vertex="1" parent="3">
          <mxGeometry x="100" y="280" width="70" height="30" as="geometry" />
        </mxCell>
        <mxCell id="4" value="icm" style="swimlane;whiteSpace=wrap" parent="1" vertex="1">
          <mxGeometry x="570" y="120" width="280" height="740" as="geometry" />
        </mxCell>
        <mxCell id="rSBJgV3G-z57Fv7vuEYP-58" value="/tkBusinessHandler/&lt;br&gt;settlementTrial/v1" style="rounded=0;whiteSpace=wrap;html=1;" vertex="1" parent="4">
          <mxGeometry x="70" y="110" width="120" height="60" as="geometry" />
        </mxCell>
        <mxCell id="rSBJgV3G-z57Fv7vuEYP-63" value="/tkBusinessHandler&lt;br&gt;/syncOrder/v1" style="rounded=0;whiteSpace=wrap;html=1;" vertex="1" parent="4">
          <mxGeometry x="70" y="310" width="120" height="60" as="geometry" />
        </mxCell>
        <mxCell id="rSBJgV3G-z57Fv7vuEYP-73" value="新增字段" style="text;html=1;align=center;verticalAlign=middle;resizable=0;points=[];autosize=1;strokeColor=none;fillColor=none;" vertex="1" parent="4">
          <mxGeometry x="105" y="80" width="70" height="30" as="geometry" />
        </mxCell>
        <mxCell id="rSBJgV3G-z57Fv7vuEYP-74" value="新增字段" style="text;html=1;align=center;verticalAlign=middle;resizable=0;points=[];autosize=1;strokeColor=none;fillColor=none;" vertex="1" parent="4">
          <mxGeometry x="90" y="270" width="70" height="30" as="geometry" />
        </mxCell>
        <mxCell id="rSBJgV3G-z57Fv7vuEYP-81" style="edgeStyle=orthogonalEdgeStyle;rounded=0;orthogonalLoop=1;jettySize=auto;html=1;" edge="1" parent="4" source="rSBJgV3G-z57Fv7vuEYP-76" target="rSBJgV3G-z57Fv7vuEYP-78">
          <mxGeometry relative="1" as="geometry" />
        </mxCell>
        <mxCell id="rSBJgV3G-z57Fv7vuEYP-76" value="监听相关事件" style="rounded=0;whiteSpace=wrap;html=1;" vertex="1" parent="4">
          <mxGeometry x="70" y="420" width="120" height="60" as="geometry" />
        </mxCell>
        <mxCell id="rSBJgV3G-z57Fv7vuEYP-78" value="业务处理" style="rounded=0;whiteSpace=wrap;html=1;" vertex="1" parent="4">
          <mxGeometry x="70" y="560" width="120" height="60" as="geometry" />
        </mxCell>
        <mxCell id="rSBJgV3G-z57Fv7vuEYP-41" value="rn-order" style="swimlane;whiteSpace=wrap" vertex="1" parent="1">
          <mxGeometry x="850" y="120" width="280" height="740" as="geometry" />
        </mxCell>
        <mxCell id="rSBJgV3G-z57Fv7vuEYP-75" value="问诊订单相关事件" style="rounded=0;whiteSpace=wrap;html=1;" vertex="1" parent="rSBJgV3G-z57Fv7vuEYP-41">
          <mxGeometry x="80" y="420" width="120" height="60" as="geometry" />
        </mxCell>
        <mxCell id="rSBJgV3G-z57Fv7vuEYP-47" value="泰康" style="swimlane;whiteSpace=wrap" vertex="1" parent="1">
          <mxGeometry x="1130" y="120" width="280" height="740" as="geometry" />
        </mxCell>
        <mxCell id="rSBJgV3G-z57Fv7vuEYP-65" value="泰康" style="rounded=0;whiteSpace=wrap;html=1;" vertex="1" parent="rSBJgV3G-z57Fv7vuEYP-47">
          <mxGeometry x="80" y="110" width="120" height="60" as="geometry" />
        </mxCell>
        <mxCell id="rSBJgV3G-z57Fv7vuEYP-67" value="泰康" style="rounded=0;whiteSpace=wrap;html=1;" vertex="1" parent="rSBJgV3G-z57Fv7vuEYP-47">
          <mxGeometry x="80" y="310" width="120" height="60" as="geometry" />
        </mxCell>
        <mxCell id="rSBJgV3G-z57Fv7vuEYP-79" value="泰康" style="rounded=0;whiteSpace=wrap;html=1;" vertex="1" parent="rSBJgV3G-z57Fv7vuEYP-47">
          <mxGeometry x="80" y="560" width="120" height="60" as="geometry" />
        </mxCell>
        <mxCell id="rSBJgV3G-z57Fv7vuEYP-56" style="edgeStyle=orthogonalEdgeStyle;rounded=0;orthogonalLoop=1;jettySize=auto;html=1;entryX=0;entryY=0.5;entryDx=0;entryDy=0;" edge="1" parent="1" source="rSBJgV3G-z57Fv7vuEYP-53" target="rSBJgV3G-z57Fv7vuEYP-55">
          <mxGeometry relative="1" as="geometry" />
        </mxCell>
        <mxCell id="rSBJgV3G-z57Fv7vuEYP-59" style="edgeStyle=orthogonalEdgeStyle;rounded=0;orthogonalLoop=1;jettySize=auto;html=1;entryX=0;entryY=0.5;entryDx=0;entryDy=0;" edge="1" parent="1" source="rSBJgV3G-z57Fv7vuEYP-55" target="rSBJgV3G-z57Fv7vuEYP-58">
          <mxGeometry relative="1" as="geometry" />
        </mxCell>
        <mxCell id="rSBJgV3G-z57Fv7vuEYP-62" style="edgeStyle=orthogonalEdgeStyle;rounded=0;orthogonalLoop=1;jettySize=auto;html=1;entryX=0;entryY=0.5;entryDx=0;entryDy=0;" edge="1" parent="1" source="rSBJgV3G-z57Fv7vuEYP-60" target="rSBJgV3G-z57Fv7vuEYP-61">
          <mxGeometry relative="1" as="geometry" />
        </mxCell>
        <mxCell id="rSBJgV3G-z57Fv7vuEYP-64" style="edgeStyle=orthogonalEdgeStyle;rounded=0;orthogonalLoop=1;jettySize=auto;html=1;entryX=0;entryY=0.5;entryDx=0;entryDy=0;" edge="1" parent="1" source="rSBJgV3G-z57Fv7vuEYP-61" target="rSBJgV3G-z57Fv7vuEYP-63">
          <mxGeometry relative="1" as="geometry" />
        </mxCell>
        <mxCell id="rSBJgV3G-z57Fv7vuEYP-66" style="edgeStyle=orthogonalEdgeStyle;rounded=0;orthogonalLoop=1;jettySize=auto;html=1;entryX=0;entryY=0.5;entryDx=0;entryDy=0;" edge="1" parent="1" source="rSBJgV3G-z57Fv7vuEYP-58" target="rSBJgV3G-z57Fv7vuEYP-65">
          <mxGeometry relative="1" as="geometry" />
        </mxCell>
        <mxCell id="rSBJgV3G-z57Fv7vuEYP-68" style="edgeStyle=orthogonalEdgeStyle;rounded=0;orthogonalLoop=1;jettySize=auto;html=1;entryX=0;entryY=0.5;entryDx=0;entryDy=0;" edge="1" parent="1" source="rSBJgV3G-z57Fv7vuEYP-63" target="rSBJgV3G-z57Fv7vuEYP-67">
          <mxGeometry relative="1" as="geometry" />
        </mxCell>
        <mxCell id="rSBJgV3G-z57Fv7vuEYP-69" value="新增字段" style="text;html=1;align=center;verticalAlign=middle;resizable=0;points=[];autosize=1;strokeColor=none;fillColor=none;" vertex="1" parent="1">
          <mxGeometry x="125" y="195" width="70" height="30" as="geometry" />
        </mxCell>
        <mxCell id="rSBJgV3G-z57Fv7vuEYP-77" style="edgeStyle=orthogonalEdgeStyle;rounded=0;orthogonalLoop=1;jettySize=auto;html=1;entryX=1;entryY=0.5;entryDx=0;entryDy=0;" edge="1" parent="1" source="rSBJgV3G-z57Fv7vuEYP-75" target="rSBJgV3G-z57Fv7vuEYP-76">
          <mxGeometry relative="1" as="geometry" />
        </mxCell>
        <mxCell id="rSBJgV3G-z57Fv7vuEYP-80" style="edgeStyle=orthogonalEdgeStyle;rounded=0;orthogonalLoop=1;jettySize=auto;html=1;entryX=0;entryY=0.5;entryDx=0;entryDy=0;" edge="1" parent="1" source="rSBJgV3G-z57Fv7vuEYP-78" target="rSBJgV3G-z57Fv7vuEYP-79">
          <mxGeometry relative="1" as="geometry" />
        </mxCell>
      </root>
    </mxGraphModel>
  </diagram>
</mxfile>
